<svg xmlns="http://www.w3.org/2000/svg" width="22" height="22" viewBox="0 0 22 22">
    <g data-name="Group 8509" transform="translate(-1363 -934)">
        <circle data-name="Ellipse 137" cx="11" cy="11" r="11" transform="translate(1363 934)" style="fill:#4c78ff"/>
        <path data-name="Icon ionic-ios-send" d="M14.189 4.525 4.627 8.693a.219.219 0 0 0 .008.4l2.586 1.461a.417.417 0 0 0 .477-.047l5.1-4.4c.034-.029.115-.083.146-.052s-.018.112-.047.146l-4.412 4.97a.416.416 0 0 0-.042.5l1.69 2.712a.22.22 0 0 0 .4-.005l3.954-9.562a.219.219 0 0 0-.298-.291z" transform="translate(1364.498 935.497)" style="fill:#fff"/>
    </g>
</svg>
