<svg xmlns="http://www.w3.org/2000/svg" width="10.69" height="12.828" viewBox="0 0 10.69 12.828">
    <path data-name="Path 3471" d="M12.156 2.138H10.5A2.677 2.677 0 0 0 7.88 0H6.811a2.677 2.677 0 0 0-2.62 2.138H2.535a.535.535 0 0 0 0 1.069h.535v6.949a2.676 2.676 0 0 0 2.673 2.673h3.206a2.676 2.676 0 0 0 2.673-2.673V3.207h.535a.535.535 0 0 0 0-1.069zM6.811 1.069H7.88a1.607 1.607 0 0 1 1.512 1.069H5.3a1.607 1.607 0 0 1 1.511-1.069zm3.742 9.087a1.6 1.6 0 0 1-1.6 1.6H5.742a1.6 1.6 0 0 1-1.6-1.6V3.207h6.414z" style="fill:#f23838" transform="translate(-2)"/>
    <path data-name="Path 3472" d="M9.535 14.276a.535.535 0 0 0 .535-.535v-3.206a.535.535 0 0 0-1.069 0v3.207a.535.535 0 0 0 .534.534z" transform="translate(-5.258 -4.655)" style="fill:#f23838"/>
    <path data-name="Path 3473" d="M13.535 14.276a.535.535 0 0 0 .535-.535v-3.206a.535.535 0 0 0-1.069 0v3.207a.535.535 0 0 0 .534.534z" transform="translate(-7.12 -4.655)" style="fill:#f23838"/>
</svg>
