<svg id="Layer_1" data-name="Layer 1" xmlns="http://www.w3.org/2000/svg" viewBox="0 0 52.44 61.75"><defs><style>.cls-1{fill:#9793c7;}</style></defs><g id="icon"><g id="Sick_Note" data-name="Sick Note"><g id="Shape-2"><path class="cls-1" d="M43.22,2.85H18.82A8.66,8.66,0,0,0,10,11.38V56.13a8.64,8.64,0,0,0,8.59,8.47h35a8.6,8.6,0,0,0,8.82-8.53V21.3Zm.89,9,8.77,8.42H44.11Zm9.56,46.83h-35a2.75,2.75,0,0,1-2.81-2.64V11.45a2.79,2.79,0,0,1,2.82-2.7H38.22V26.2H56.54V56A2.72,2.72,0,0,1,53.67,58.71Z" transform="translate(-10 -2.85)"/></g><g id="Shape-3"><rect class="cls-1" x="14.19" y="30.72" width="24.06" height="5.9"/></g><g id="Shape-4"><rect class="cls-1" x="14.19" y="41.89" width="24.06" height="5.9"/></g><g id="Shape-5"><rect class="cls-1" x="14.5" y="19.55" width="6.11" height="5.9"/></g></g></g></svg>