<svg id="Layer_1" data-name="Layer 1" xmlns="http://www.w3.org/2000/svg" viewBox="0 0 57.54 58.52"><defs><style>.cls-1{fill:#31b990;}</style></defs><g id="health-care"><g id="Group_2068" data-name="Group 2068"><g id="Group_2067" data-name="Group 2067"><g id="Path_780" data-name="Path 780"><path class="cls-1" d="M64.43,53.42l-7.26-7.26A9.33,9.33,0,0,0,41.11,36.7v0a10.64,10.64,0,0,0-.78,1.59,9.31,9.31,0,0,0,6.54,17.42,10,10,0,0,0,1.3-.57l7.27,7.27a2,2,0,0,0,2.74,0l6.26-6.26A2,2,0,0,0,64.43,53.42ZM53.19,45.18a1.92,1.92,0,0,0,.12,2.6l7,7-3.52,3.52-7-7a2,2,0,0,0-1.37-.56,1.92,1.92,0,0,0-1.23.44,5.44,5.44,0,0,1-7.29-8,5.11,5.11,0,0,1,2.41-1.39,1.94,1.94,0,0,0,1.41-1.41,5.14,5.14,0,0,1,1.41-2.42A5.38,5.38,0,0,1,49,36.3h0a5.39,5.39,0,0,1,3.82,1.59l.64-.62-.62.63A5.37,5.37,0,0,1,53.19,45.18Z" transform="translate(-7.45 -4.46)"/></g></g></g><g id="Group_2070" data-name="Group 2070"><g id="Group_2069" data-name="Group 2069"><g id="Path_781" data-name="Path 781"><path class="cls-1" d="M40,21A9.32,9.32,0,0,0,26.8,15.8L18.49,7.49a1.94,1.94,0,0,0-2.72,0L9.5,13.76a1.94,1.94,0,0,0,0,2.73l8.3,8.31A9.33,9.33,0,0,0,26,38.55a9.61,9.61,0,0,0,2-.21,9.24,9.24,0,0,0,5.86-4.07,8.38,8.38,0,0,0,.84-1.63A9.32,9.32,0,0,0,40,21ZM21.79,25.77a1.91,1.91,0,0,0-.12-2.59l-8.06-8.07,3.53-3.52,8.06,8.06a1.91,1.91,0,0,0,2.58.13,5.45,5.45,0,0,1,7.29,8.08,5.21,5.21,0,0,1-2.41,1.4,1.89,1.89,0,0,0-1.39,1.38,5.29,5.29,0,0,1-1.41,2.43,5.45,5.45,0,0,1-8.07-7.3Z" transform="translate(-7.45 -4.46)"/></g></g></g><g id="Group_2072" data-name="Group 2072"><g id="Group_2071" data-name="Group 2071"><g id="Path_782" data-name="Path 782"><path class="cls-1" d="M45.4,6.4v7.11a1.94,1.94,0,1,1-3.88,0V6.4a1.94,1.94,0,1,1,3.88,0Z" transform="translate(-7.45 -4.46)"/></g></g></g><g id="Group_2074" data-name="Group 2074"><g id="Group_2073" data-name="Group 2073"><g id="Path_783" data-name="Path 783"><path class="cls-1" d="M29.74,53.34v7.12a1.94,1.94,0,0,1-3.87,0V53.34a1.94,1.94,0,1,1,3.87,0Z" transform="translate(-7.45 -4.46)"/></g></g></g><g id="Group_2076" data-name="Group 2076"><g id="Group_2075" data-name="Group 2075"><g id="Path_784" data-name="Path 784"><path class="cls-1" d="M18.43,42a1.9,1.9,0,0,1-.56,1.37,1.87,1.87,0,0,1-1.36.57H9.39A2,2,0,0,1,7.45,42h0a1.94,1.94,0,0,1,1.93-1.93h7.11A1.94,1.94,0,0,1,18.43,42Z" transform="translate(-7.45 -4.46)"/></g></g></g><g id="Group_2078" data-name="Group 2078"><g id="Group_2077" data-name="Group 2077"><g id="Path_785" data-name="Path 785"><path class="cls-1" d="M63.85,26.37a1.94,1.94,0,0,1-1.94,1.94H54.79a2,2,0,0,1-1.94-1.94A2,2,0,0,1,53.43,25a2,2,0,0,1,1.36-.57h7.12A1.94,1.94,0,0,1,63.85,26.37Z" transform="translate(-7.45 -4.46)"/></g></g></g><g id="Group_2080" data-name="Group 2080"><g id="Group_2079" data-name="Group 2079"><g id="Path_786" data-name="Path 786"><path class="cls-1" d="M21.64,50.16a1.91,1.91,0,0,1-.57,1.37l-5,5a2,2,0,0,1-1.35.53,1.88,1.88,0,0,1-1.3-.5,1.94,1.94,0,0,1-.11-2.74l5-5.07a1.94,1.94,0,0,1,2.75,0A1.89,1.89,0,0,1,21.64,50.16Z" transform="translate(-7.45 -4.46)"/></g></g></g><g id="Group_2082" data-name="Group 2082"><g id="Group_2081" data-name="Group 2081"><g id="Path_787" data-name="Path 787"><path class="cls-1" d="M56.45,16.13l-5,5a1.93,1.93,0,0,1-2.76-2.71l5.07-5.08a2.18,2.18,0,0,1,1.37-.56,2,2,0,0,1,1.37.59A1.93,1.93,0,0,1,56.45,16.13Z" transform="translate(-7.45 -4.46)"/></g></g></g></g></svg>