     <svg xmlns="http://www.w3.org/2000/svg" width="32" height="32" viewBox="0 0 32 32"><g transform="translate(0.081 -0.167)"><rect width="32" height="32" transform="translate(-0.081 0.167)" fill="none"/><path d="M8.113,23.635A10.944,10.944,0,0,0,22.047,24.9L18.4,21.261a5.919,5.919,0,1,1-5.079-10.693l.043-.02V5.307A10.9,10.9,0,0,0,8.113,23.635ZM20.029,11.744A5.907,5.907,0,0,1,21.311,18.2l3.683,3.675a10.9,10.9,0,0,0-7.4-16.708v5.106A5.911,5.911,0,0,1,20.029,11.744Z" fill="#D3D3D3"/><ellipse cx="3.005" cy="2.999" rx="3.005" ry="2.999" transform="translate(12.833 13)" fill="#D3D3D3"/></g></svg>
