<svg xmlns="http://www.w3.org/2000/svg" width="16.667" height="9.981" viewBox="0 0 16.667 9.981">
    <g data-name="Group 6005">
        <path data-name="Path 2792" d="M293.589 399.581a9.387 9.387 0 0 1-8.1-4.676.228.228 0 0 1 0-.229 9.35 9.35 0 0 1 16.2 0 .228.228 0 0 1 0 .229 9.387 9.387 0 0 1-8.1 4.676zm-7.636-4.79a8.894 8.894 0 0 0 15.272 0 8.894 8.894 0 0 0-15.272 0z" transform="translate(-285.256 -389.8)" style="fill:#fff;stroke:#fff;stroke-width:.4px"/>
        <path data-name="Path 2793" d="M453.281 456.14a2.861 2.861 0 1 1 2.861-2.861 2.864 2.864 0 0 1-2.861 2.861zm0-5.265a2.4 2.4 0 1 0 2.4 2.4 2.407 2.407 0 0 0-2.4-2.401z" transform="translate(-444.948 -448.289)" style="fill:#fff;stroke:#fff;stroke-width:.4px"/>
    </g>
</svg>
