<svg id="Layer_1" data-name="Layer 1" xmlns="http://www.w3.org/2000/svg" viewBox="0 0 50.95 58.63"><defs><style>.cls-1{fill:#7795cc;}</style></defs><path id="Union_20" data-name="Union 20" class="cls-1" d="M25.64,48.1V36A17.2,17.2,0,0,1,10.75,19V8.84a2.13,2.13,0,0,1,2.13-2.15h4.87V6.57a2.16,2.16,0,1,1,4.32,0v4.55a2.16,2.16,0,0,1-4.32,0h0V11h-2.7V19A13,13,0,0,0,41,19V11H38.45v.14a2.16,2.16,0,1,1-4.31,0V6.57a2.16,2.16,0,1,1,4.31,0V6.7h4.68A2.16,2.16,0,0,1,45.3,8.84V19A17.22,17.22,0,0,1,30,36.08v12a10.79,10.79,0,0,0,21.57,0V39.66a8,8,0,1,1,4.33,0V48.1a15.12,15.12,0,0,1-30.23,0ZM50,32a3.68,3.68,0,1,0,3.72-3.63h0A3.67,3.67,0,0,0,50,32Z" transform="translate(-10.75 -4.4)"/></svg>