<svg id="Layer_1" data-name="Layer 1" xmlns="http://www.w3.org/2000/svg" viewBox="0 0 51.88 51.86"><defs><style>.cls-1{fill:#f58566;}.cls-2{fill:#f5866a;}</style></defs><g id="headache"><g id="Path"><path class="cls-1" d="M26.61,10a1.35,1.35,0,0,0-.19.33,1.8,1.8,0,0,0,0,1.44,1.86,1.86,0,0,0,.48.73A5,5,0,0,1,26.61,10ZM14.26,23.85a1.94,1.94,0,0,0-1.46.06,3.24,3.24,0,0,0-.35.21h.06a5.58,5.58,0,0,1,2.5.25A1.78,1.78,0,0,0,14.26,23.85Z" transform="translate(-10.28 -7.79)"/><path class="cls-2" d="M33.47,19.93a7.35,7.35,0,0,1-1.32.11H32A9.3,9.3,0,0,1,22.85,9.38a1.91,1.91,0,0,1,3.76.64,1.35,1.35,0,0,0-.19.33,1.8,1.8,0,0,0,0,1.44,1.86,1.86,0,0,0,.48.73,5.07,5.07,0,0,0,1.29,2.11,5.6,5.6,0,0,0,4.63,1.57A1.87,1.87,0,0,1,35,17.7,1.89,1.89,0,0,1,33.47,19.93Z" transform="translate(-10.28 -7.79)"/><path class="cls-2" d="M60.65,42.45A25.93,25.93,0,0,1,11.82,25a2.16,2.16,0,0,1,.63-.88h.06a5.58,5.58,0,0,1,2.5.25,2,2,0,0,1,.4,1.9A22.22,22.22,0,0,0,43.83,54.7,22.21,22.21,0,0,0,57.18,26.29,22.2,22.2,0,0,0,28.76,12.92a1.89,1.89,0,0,1-1.9-.4,5,5,0,0,1-.25-2.5,1.91,1.91,0,0,1,.85-.68,26.6,26.6,0,0,1,8.77-1.55h0A25.59,25.59,0,0,1,45,9.32,26,26,0,0,1,60.65,42.45Z" transform="translate(-10.28 -7.79)"/></g><g id="Path-2"><path class="cls-2" d="M30.82,34.79a1.91,1.91,0,0,1-1.91,1.9H24.72a1.91,1.91,0,0,1,0-3.81h4.19A1.92,1.92,0,0,1,30.82,34.79Z" transform="translate(-10.28 -7.79)"/></g><g id="Path-3"><path class="cls-2" d="M49.62,34.79a1.91,1.91,0,0,1-1.9,1.9H43.54a1.91,1.91,0,0,1,0-3.81h4.18A1.91,1.91,0,0,1,49.62,34.79Z" transform="translate(-10.28 -7.79)"/></g><g id="Path-4"><path class="cls-2" d="M43.35,45.23a1.9,1.9,0,0,1-1.9,1.9H31a1.91,1.91,0,1,1,0-3.81H41.45A1.91,1.91,0,0,1,43.35,45.23Z" transform="translate(-10.28 -7.79)"/></g><g id="Path-5"><path class="cls-2" d="M19.81,17.32A9.36,9.36,0,0,1,13.25,20h-.13a6.92,6.92,0,0,1-1.28-.11,1.9,1.9,0,0,1-1.5-2.19,1.77,1.77,0,0,1,.78-1.22,1.73,1.73,0,0,1,1.41-.32A5.5,5.5,0,0,0,18.68,10a1.87,1.87,0,0,1,1.41-2.11,1.8,1.8,0,0,1,1.45.21,1.86,1.86,0,0,1,.86,1.16l0,.1A9.35,9.35,0,0,1,19.81,17.32Z" transform="translate(-10.28 -7.79)"/></g><g id="Path-6"><path class="cls-1" d="M26.61,10a1.35,1.35,0,0,0-.19.33,1.8,1.8,0,0,0,0,1.44,1.86,1.86,0,0,0,.48.73A5,5,0,0,1,26.61,10Z" transform="translate(-10.28 -7.79)"/></g><g id="Path-7"><path class="cls-2" d="M35,22.62a1.88,1.88,0,0,1-2.23,1.48,4.78,4.78,0,0,0-1.41,0,5.49,5.49,0,0,0-4.7,6.17,1.9,1.9,0,0,1-1.53,2.17,1.76,1.76,0,0,1-.34,0A1.88,1.88,0,0,1,22.87,31a9.39,9.39,0,0,1,0-2.8,9.3,9.3,0,0,1,10.58-7.81l0,0a1.82,1.82,0,0,1,1.2.8A1.9,1.9,0,0,1,35,22.62Z" transform="translate(-10.28 -7.79)"/></g><g id="Path-8"><path class="cls-2" d="M22.44,30.94a1.93,1.93,0,0,1-1.89,1.56,1.23,1.23,0,0,1-.38,0,1.91,1.91,0,0,1-1.49-2.22,5.46,5.46,0,0,0-1.56-4.56A5.14,5.14,0,0,0,15,24.37a1.78,1.78,0,0,0-.75-.52,1.94,1.94,0,0,0-1.46.06,3.24,3.24,0,0,0-.35.21,1.91,1.91,0,0,1-1.33-.3,1.82,1.82,0,0,1-.8-1.2,1.88,1.88,0,0,1,1.5-2.23,9.23,9.23,0,0,1,8,2.61A9.36,9.36,0,0,1,22.44,30.94Z" transform="translate(-10.28 -7.79)"/><path class="cls-1" d="M14.26,23.85a1.94,1.94,0,0,0-1.46.06,3.24,3.24,0,0,0-.35.21h.06a5.58,5.58,0,0,1,2.5.25A1.78,1.78,0,0,0,14.26,23.85Z" transform="translate(-10.28 -7.79)"/></g></g></svg>