<svg id="Layer_1" data-name="Layer 1" xmlns="http://www.w3.org/2000/svg" viewBox="0 0 49.68 58.44"><defs><style>.cls-1{fill:#f9a11b;}.cls-2{fill:#fff;}</style></defs><rect id="Rectangle_577" data-name="Rectangle 577" class="cls-1" width="49.68" height="58.44" rx="5.84"/><g id="Shape-Copy"><path class="cls-2" d="M39.81,45.83a2.18,2.18,0,0,1-2.07-1.47l-5-14.23L31.3,34.29a2.2,2.2,0,0,1-2.07,1.47h-4.7a2.2,2.2,0,0,1,0-4.39h3.15l3-8.6a2.19,2.19,0,0,1,4.14,0l5,14.23,1.45-4.16a2.2,2.2,0,0,1,2.07-1.47H48a2.2,2.2,0,0,1,0,4.39H44.88l-3,8.6A2.18,2.18,0,0,1,39.81,45.83Z" transform="translate(-11.38 -4.5)"/></g></svg>