<svg id="Layer_1" data-name="Layer 1" xmlns="http://www.w3.org/2000/svg" viewBox="0 0 50.45 50.44"><defs><style>.cls-1{fill:#57c09e;}</style></defs><g id="drugs"><g id="Shape"><path class="cls-1" d="M51.33,34l2.31-2.33a13.61,13.61,0,0,0,4-9.6,13.38,13.38,0,0,0-4-9.57,13.54,13.54,0,0,0-19.14,0L11.14,35.82a13.54,13.54,0,0,0,9.58,23.12h0a13.55,13.55,0,0,0,9.55-4l2.33-2.33a13.62,13.62,0,0,0,4.81,4.58A13.54,13.54,0,0,0,51.33,34Zm-15.43.66-9-9L37.28,15.25a9.59,9.59,0,0,1,6.77-2.83h.33a9.62,9.62,0,0,1,6.5,16.42l-3.43,3.45A13.52,13.52,0,0,0,35.9,34.62ZM30.54,45.41A13.35,13.35,0,0,0,31,48.77l-3.53,3.51a9.36,9.36,0,0,1-6.81,2.79,9.62,9.62,0,0,1-6.7-16.47L24.12,28.39l9,9A13.41,13.41,0,0,0,30.54,45.41Zm11.59,9.41a9.63,9.63,0,0,1,0-18.84Zm9.66-3.65a9.65,9.65,0,0,1-5.74,3.65V36a9.64,9.64,0,0,1,5.74,15.19Z" transform="translate(-7.18 -8.5)"/></g></g></svg>