<svg id="Layer_1" data-name="Layer 1" xmlns="http://www.w3.org/2000/svg" viewBox="0 0 64.22 55.07"><defs><style>.cls-1{fill:#b358a2;}</style></defs><path id="Union_19" data-name="Union 19" class="cls-1" d="M35.82,60.18h-.29a4.17,4.17,0,0,0-.87-.15,12.56,12.56,0,0,1-1.37-.2A10.57,10.57,0,0,1,25,50.71,12.7,12.7,0,0,1,26.39,43l.21-.44a12.93,12.93,0,0,0,1.24-2.7A16.31,16.31,0,0,1,24.79,39a3.88,3.88,0,0,0-4.58.5A13.2,13.2,0,0,1,18,40.85a3.3,3.3,0,0,1-3.34.08,18.07,18.07,0,0,1-2.4-1.58,2.8,2.8,0,0,0-3-.2,5.12,5.12,0,0,0-1.75,1.27A1.1,1.1,0,0,1,6,40.67l0,0a1,1,0,0,1,0-1.46.52.52,0,0,1,.11-.1,6.44,6.44,0,0,1,4.37-2.36,4.68,4.68,0,0,1,3.41,1.14c.51.36,1,.71,1.6,1.07a1.54,1.54,0,0,0,1.74,0,20.66,20.66,0,0,0,2-1.28,5.56,5.56,0,0,1,6.1-.71,14.71,14.71,0,0,0,2.91.85A9.76,9.76,0,0,0,28,34.65a1.81,1.81,0,0,0-1.82-1.2H5.74a1.57,1.57,0,0,1-.12-3.14h7.83A7.17,7.17,0,0,1,13.81,29a9.55,9.55,0,0,0,.51-2.85A11.91,11.91,0,0,0,14,23.33a39.23,39.23,0,0,0-3.4-8.89c-.37-.79-.87-1.64-1.33-2.42-.13-.36-.13-.65.16-.78a.52.52,0,0,1,.71.2v0a34.12,34.12,0,0,1,3.43,5A44.05,44.05,0,0,1,18,27.4c.22.79.36,2.08.51,2.92h7.7A5,5,0,0,1,31,33.59v.09a12.26,12.26,0,0,1,0,6.69,17.36,17.36,0,0,1-1.59,3.71l-.23.43a9,9,0,0,0-1.07,5.84,7.14,7.14,0,0,0,5.8,6.41c.3.08.66.08,1,.15s.66.07,1,.14h1.31A3,3,0,0,1,38,57h.07a7.63,7.63,0,0,0,4.86-1.92,8.92,8.92,0,0,0,1.61-9.84c-.21-.44-.43-.86-.65-1.28a15,15,0,0,1-1-2,15.38,15.38,0,0,1-.88-7v-.14a5.15,5.15,0,0,1,5.6-4.42h4.58c.07-.14.07-.28.14-.44A9.55,9.55,0,0,0,52.83,27a11.91,11.91,0,0,0-.37-2.85,38.7,38.7,0,0,0-3.41-8.9c-.36-.78-.87-1.65-1.31-2.43-.14-.36-.14-.64.14-.78a.54.54,0,0,1,.73.22h0a34.06,34.06,0,0,1,3.42,5,43.44,43.44,0,0,1,4.43,11c.14.71.29,1.34.44,2h9.8a1.57,1.57,0,0,1,.12,3.14H47.6c-1.6,0-2.12.43-2.48,1.85a12.55,12.55,0,0,0-.07,1.5,6.35,6.35,0,0,1,4.73.87,10.67,10.67,0,0,0,2.1,1.43,1.36,1.36,0,0,0,1.24,0,13.7,13.7,0,0,0,2.1-1.36A5.83,5.83,0,0,1,61.7,37a9.15,9.15,0,0,0,2.4.85,2.3,2.3,0,0,0,2.18-.56,1.31,1.31,0,0,1,1.59-.09A1.06,1.06,0,0,1,68,38.66,3.51,3.51,0,0,1,65.4,40a8.58,8.58,0,0,1-4-.93,11.8,11.8,0,0,0-1.45-.5,3.11,3.11,0,0,0-2.83.58,16.54,16.54,0,0,1-2.62,1.7,3.49,3.49,0,0,1-3.62-.07,17.93,17.93,0,0,1-2-1.28,2.89,2.89,0,0,0-3.42-.28,13.92,13.92,0,0,0,.45,1.56c.22.5.58,1.07.87,1.71a16,16,0,0,1,.73,1.43,11.78,11.78,0,0,1-2.33,13.46,10.9,10.9,0,0,1-6.76,2.78h-.37a1.09,1.09,0,0,1-.51.07ZM49,55.48a3.89,3.89,0,0,1,1.17-2.78A4.16,4.16,0,0,1,53,51.56a3.89,3.89,0,0,1,3.84,3.85,3.42,3.42,0,0,1-1.08,2.7A4.21,4.21,0,0,1,53,59.25,4,4,0,0,1,49,55.48Zm2.69-1.29a2.13,2.13,0,0,0-.51,1.29A1.76,1.76,0,0,0,53,57.19a1.83,1.83,0,0,0,1.31-.57,1.64,1.64,0,0,0,.5-1.14A1.82,1.82,0,0,0,53,53.7a1.77,1.77,0,0,0-1.31.5ZM19.4,56.91a2.67,2.67,0,0,1-2.69-2.64,2.73,2.73,0,0,1,2.76-2.64,3.66,3.66,0,0,1,2,.78,3,3,0,0,1,.72,1.86,2.66,2.66,0,0,1-2.68,2.64H19.4Zm.07-1.36a1.26,1.26,0,0,0,1.24-1.21,1.24,1.24,0,0,0-.36-.87,1.47,1.47,0,0,0-.87-.36,1.22,1.22,0,1,0,0,2.43h0Zm13.38-3.49A5.88,5.88,0,0,1,31,47.79v-1a18.23,18.23,0,0,1,1.17-5.84,21.74,21.74,0,0,0,1-5.7,21.58,21.58,0,0,0-.65-5.71,78,78,0,0,0-6.83-17.8A45,45,0,0,0,23,6.87a1,1,0,0,1,.07-1.45l.15-.11c.51-.36,1-.22,1.53.35a64.56,64.56,0,0,1,6.9,10,85.21,85.21,0,0,1,8.8,21.93,40.21,40.21,0,0,1,1.3,7.71,9,9,0,0,1-1,5.33,5.38,5.38,0,0,1-4.66,2.62,4.85,4.85,0,0,1-3.26-1.18Zm24.86-2.63a3.58,3.58,0,0,1,3.6-3.57h.11a3.73,3.73,0,0,1,2.61,1,3.48,3.48,0,0,1,1.09,2.57A3.57,3.57,0,0,1,64,52.06a3.78,3.78,0,0,1-2.68,1.07,3.64,3.64,0,0,1-3.65-3.62v-.09Zm1.88,0a1.74,1.74,0,0,0,1.64,1.84h.11a2,2,0,0,0,1.38-.5,2.16,2.16,0,0,0,.5-1.42,1.7,1.7,0,0,0-.5-1.21,2,2,0,0,0-1.32-.51,1.8,1.8,0,0,0-1.82,1.76v0Zm-51,1.06a2.22,2.22,0,0,1,.66-1.57,2.36,2.36,0,0,1,1.67-.65,2.26,2.26,0,0,1,1.59.65,2,2,0,0,1,.65,1.57A2.18,2.18,0,0,1,11,52.7h-.09a2.27,2.27,0,0,1-2.33-2.18ZM10,49.77a1.16,1.16,0,0,0-.3.79A1.14,1.14,0,0,0,12,50.49h0a1.09,1.09,0,0,0-.29-.79,1.64,1.64,0,0,0-.8-.28,1.23,1.23,0,0,0-.87.36Zm9.6.15a3.57,3.57,0,0,1-3.41-3.56A3.44,3.44,0,0,1,19.71,43a3.49,3.49,0,0,1,2.53,1.15,3.29,3.29,0,0,1,1,2.41,3.56,3.56,0,0,1-3.49,3.36Zm-1.38-3.56a1.46,1.46,0,0,0,1.42,1.49h0a1.56,1.56,0,0,0,1.53-1.42,1.4,1.4,0,0,0-.44-1,1.45,1.45,0,0,0-2.55.93Zm32.25-1a2.07,2.07,0,0,1,.65-1.5,2.15,2.15,0,0,1,3.06,0,2,2,0,0,1,.64,1.5,2.08,2.08,0,0,1-2.09,2.07,2.39,2.39,0,0,1-2.27-2.06Zm1.9-.44a.55.55,0,0,0-.15.36.5.5,0,0,0,.48.5h0a.48.48,0,0,0,.5-.46v0a.53.53,0,0,0-.13-.36c-.15-.07-.22-.15-.37-.15a.58.58,0,0,0-.37.17Z" transform="translate(-4.11 -5.11)"/></svg>