<svg xmlns="http://www.w3.org/2000/svg" width="21.245" height="19.414" viewBox="0 0 21.245 19.414">
    <path d="M374.014 298.844a1.738 1.738 0 0 1 .055 1.628 1.662 1.662 0 0 1-1.306.93v.01h-18.17a1.654 1.654 0 0 1-1.338-.793 1.739 1.739 0 0 1-.122-1.579l.007-.012a1.715 1.715 0 0 1 .176-.315l8.778-15.678a1.709 1.709 0 0 1 .193-.345l.016-.028h.005a1.642 1.642 0 0 1 1.577-.64 1.672 1.672 0 0 1 1.3 1.113l8.829 15.712zm-8.734-10.092a1.734 1.734 0 0 1-.049.316l-.859 5.536h-1.557l-.81-5.571a1.74 1.74 0 0 1-.04-.278V288.641a1.662 1.662 0 1 1 3.323 0v.088zm-1.658 6.707a1.7 1.7 0 1 1-1.661 1.7 1.682 1.682 0 0 1 1.662-1.7z" transform="translate(-353 -281.998)" style="fill:#842128;fill-rule:evenodd" data-name="Group 7521"/>
</svg>
