<svg data-name="xon call" xmlns="http://www.w3.org/2000/svg" width="20.494" height="19.07" viewBox="0 0 20.494 19.07">
    <path data-name="Path 2815" d="M22.19 31.511c-.064 0-.128 0-.192-.009a14.737 14.737 0 0 1-6.4-2.272 14.534 14.534 0 0 1-4.439-4.443 14.712 14.712 0 0 1-2.27-6.412A2.091 2.091 0 0 1 10.78 16.1c.061-.006.122-.008.183-.008H13.1a2.091 2.091 0 0 1 2.06 1.8 8.384 8.384 0 0 0 .457 1.843 2.092 2.092 0 0 1-.47 2.2l-.526.526a10.635 10.635 0 0 0 3.285 3.282l.525-.525a2.1 2.1 0 0 1 2.205-.471 8.385 8.385 0 0 0 1.834.455 2.089 2.089 0 0 1 1.8 2.121v2.1a2.089 2.089 0 0 1-2.07 2.088zM13.1 17.439h-2.198a.738.738 0 0 0-.668.8 13.353 13.353 0 0 0 2.066 5.819 13.188 13.188 0 0 0 4.032 4.035 13.366 13.366 0 0 0 5.8 2.066h.058a.738.738 0 0 0 .733-.74V27.25a.738.738 0 0 0-.635-.717A9.735 9.735 0 0 1 20.166 26a.739.739 0 0 0-.78.165l-.9.894a.674.674 0 0 1-.81.11 11.976 11.976 0 0 1-4.493-4.49.675.675 0 0 1 .11-.811l.9-.9a.739.739 0 0 0 .163-.775 9.767 9.767 0 0 1-.53-2.135.738.738 0 0 0-.726-.619z" transform="translate(-8.882 -12.441)" style="fill:#3b3b3b"/>
    <path data-name="Path 2816" d="M23.267 16.2a.7.7 0 0 1-.136-.014.676.676 0 0 1-.526-.8 3.668 3.668 0 0 0-2.092-4.1.675.675 0 1 1 .556-1.23 5.01 5.01 0 0 1 2.859 5.6.675.675 0 0 1-.661.544zm-1.845-.595a.718.718 0 0 1-.083-.005.675.675 0 0 1-.588-.752 1.74 1.74 0 0 0-.887-1.74.675.675 0 0 1 .655-1.18 3.084 3.084 0 0 1 1.572 3.084.675.675 0 0 1-.67.594z" transform="translate(-12.784 -10)" style="fill:#3b3b3b"/>
    <path data-name="Path 2817" d="M33.076 24.935h-3.435a1.245 1.245 0 0 1-1.241-1.244v-3.435a1.245 1.245 0 0 1 1.244-1.244h3.435a1.247 1.247 0 0 1 1.2.927l.73-.4.229.392-.186-.413a1.237 1.237 0 0 1 .862-.057l.06.017.055.029a1.055 1.055 0 0 1 .575.925V23.5a1.057 1.057 0 0 1-1.618.889l-.711-.373a1.246 1.246 0 0 1-1.199.919zm-3.329-1.35h3.223v-3.223h-3.223zm4.573-1.067.935.49v-2.062l-.935.508z" transform="translate(-16.11 -13.32)" style="fill:#3b3b3b"/>
</svg>
