<svg id="aac" xmlns="http://www.w3.org/2000/svg" width="64" height="64" viewBox="0 0 64 64">
  <g id="BDM-12" transform="translate(-785 -455)">
    <g id="Group-2-Copy-2" transform="translate(785 451)">
      <g id="Group-4" transform="translate(0 4)">
        <rect id="Rectangle" width="64" height="64" rx="3" fill="#b96843"/>
        <path id="PNG" d="M11.336,0H9.672a.727.727,0,0,1-.46-.14.8.8,0,0,1-.26-.348l-.864-2.36H3.3L2.432-.488a.757.757,0,0,1-.252.336A.708.708,0,0,1,1.72,0H.048L4.592-11.568h2.2ZM3.848-4.368H7.536L6.128-8.216q-.1-.256-.212-.6t-.228-.756q-.112.408-.22.76T5.256-8.2ZM22.4,0H20.739a.727.727,0,0,1-.46-.14.8.8,0,0,1-.26-.348l-.864-2.36H14.363L13.5-.488a.757.757,0,0,1-.252.336.708.708,0,0,1-.46.152H11.115l4.544-11.568h2.2ZM14.915-4.368H18.6L17.195-8.216q-.1-.256-.212-.6t-.228-.756q-.112.408-.22.76t-.212.616Zm15.931,1.64a.4.4,0,0,1,.3.136l.848.92A4.657,4.657,0,0,1,30.265-.336,5.969,5.969,0,0,1,27.8.128a5.832,5.832,0,0,1-2.316-.44,5.1,5.1,0,0,1-1.756-1.224,5.358,5.358,0,0,1-1.116-1.872,7.027,7.027,0,0,1-.388-2.376,6.4,6.4,0,0,1,.432-2.388,5.472,5.472,0,0,1,1.216-1.868,5.5,5.5,0,0,1,1.876-1.22,6.45,6.45,0,0,1,2.412-.436,5.7,5.7,0,0,1,2.252.412,5.263,5.263,0,0,1,1.652,1.092l-.72,1a.653.653,0,0,1-.164.168.465.465,0,0,1-.276.072.629.629,0,0,1-.376-.144,4.655,4.655,0,0,0-.488-.312,3.978,3.978,0,0,0-.748-.312,3.849,3.849,0,0,0-1.148-.144,3.874,3.874,0,0,0-1.5.284,3.334,3.334,0,0,0-1.176.812A3.736,3.736,0,0,0,24.7-7.484a4.931,4.931,0,0,0-.276,1.7A5.067,5.067,0,0,0,24.7-4.048a3.817,3.817,0,0,0,.748,1.28,3.194,3.194,0,0,0,1.112.8,3.437,3.437,0,0,0,1.376.276,5.994,5.994,0,0,0,.8-.048,3.379,3.379,0,0,0,.656-.152,2.912,2.912,0,0,0,.568-.268,3.549,3.549,0,0,0,.532-.4.758.758,0,0,1,.168-.116A.423.423,0,0,1,30.845-2.728Z" transform="translate(16 39)" fill="#fff"/>
      </g>
    </g>
  </g>
</svg>
