<svg id="jpg" xmlns="http://www.w3.org/2000/svg" width="64" height="64" viewBox="0 0 64 64">
  <g id="BDM-12" transform="translate(-785 -525)">
    <g id="Group-2-Copy-2" transform="translate(785 521)">
      <g id="Group-4" transform="translate(0 4)">
        <rect id="Rectangle" width="64" height="64" rx="3" fill="#31a188"/>
        <path id="JPG-2" data-name="JPG" d="M5.824-4.112a6,6,0,0,1-.24,1.76,3.653,3.653,0,0,1-.716,1.336A3.126,3.126,0,0,1,3.68-.168a4.289,4.289,0,0,1-1.656.3A6.831,6.831,0,0,1,1.176.076,7.633,7.633,0,0,1,.3-.088l.112-1.28a.425.425,0,0,1,.132-.284.482.482,0,0,1,.34-.108,1.517,1.517,0,0,1,.356.056,2.3,2.3,0,0,0,.556.056,2.292,2.292,0,0,0,.808-.132A1.367,1.367,0,0,0,3.2-2.2a1.935,1.935,0,0,0,.356-.748,4.479,4.479,0,0,0,.12-1.116v-7.5H5.824Zm4.267.04V0H7.939V-11.568h3.768a6.6,6.6,0,0,1,2.008.272,3.865,3.865,0,0,1,1.4.76,2.976,2.976,0,0,1,.816,1.168,4.078,4.078,0,0,1,.264,1.488,4.111,4.111,0,0,1-.28,1.54,3.2,3.2,0,0,1-.84,1.2,3.909,3.909,0,0,1-1.4.784,6.234,6.234,0,0,1-1.968.28Zm0-1.68h1.616A3.242,3.242,0,0,0,12.739-5.9a1.917,1.917,0,0,0,.728-.424A1.738,1.738,0,0,0,13.9-7a2.572,2.572,0,0,0,.144-.884,2.333,2.333,0,0,0-.144-.84,1.66,1.66,0,0,0-.432-.64,1.922,1.922,0,0,0-.728-.4,3.414,3.414,0,0,0-1.032-.14H10.091ZM22.885-1.584a5.384,5.384,0,0,0,1.268-.132,5.341,5.341,0,0,0,1.028-.364v-2.1H23.733a.452.452,0,0,1-.328-.116.38.38,0,0,1-.12-.284V-5.8h3.848v4.68a6.356,6.356,0,0,1-.916.556A5.849,5.849,0,0,1,25.2-.176a7.782,7.782,0,0,1-1.156.228,10.871,10.871,0,0,1-1.328.076,6.033,6.033,0,0,1-2.328-.44,5.531,5.531,0,0,1-1.84-1.224,5.573,5.573,0,0,1-1.212-1.872A6.33,6.33,0,0,1,16.9-5.784a6.534,6.534,0,0,1,.424-2.392,5.4,5.4,0,0,1,1.2-1.872,5.375,5.375,0,0,1,1.892-1.216,6.846,6.846,0,0,1,2.5-.432,6.508,6.508,0,0,1,2.452.42,5.655,5.655,0,0,1,1.756,1.092l-.624.976a.555.555,0,0,1-.488.3.726.726,0,0,1-.392-.128q-.256-.152-.524-.3a3.545,3.545,0,0,0-.592-.264,4.826,4.826,0,0,0-.728-.184,5.36,5.36,0,0,0-.932-.072,3.993,3.993,0,0,0-1.548.288,3.275,3.275,0,0,0-1.18.824,3.714,3.714,0,0,0-.752,1.288,5.047,5.047,0,0,0-.264,1.68A5.25,5.25,0,0,0,19.381-4a3.734,3.734,0,0,0,.784,1.316,3.378,3.378,0,0,0,1.2.82A3.985,3.985,0,0,0,22.885-1.584Z" transform="translate(18 39)" fill="#fff"/>
      </g>
    </g>
  </g>
</svg>
