<svg id="M4A" xmlns="http://www.w3.org/2000/svg" width="64" height="64" viewBox="0 0 64 64">
  <g id="BDM-12" transform="translate(-785 -455)">
    <g id="Group-2-Copy-2" transform="translate(785 451)">
      <g id="Group-4" transform="translate(0 4)">
        <path id="Rectangle" d="M3,0H61a3,3,0,0,1,3,3V61a3,3,0,0,1-3,3H3a3,3,0,0,1-3-3V3A3,3,0,0,1,3,0Z" fill="#337ed6"/>
        <path id="PNG" d="M6.976-4.8q.136.256.252.532t.228.556Q7.568-4,7.688-4.28t.256-.536l3.424-6.408a.888.888,0,0,1,.132-.192.408.408,0,0,1,.152-.1.671.671,0,0,1,.188-.04q.1-.008.248-.008h1.624V0h-1.9V-7.472q0-.208.012-.456t.036-.5l-3.5,6.56a.922.922,0,0,1-.312.348.807.807,0,0,1-.448.124h-.3a.807.807,0,0,1-.448-.124.922.922,0,0,1-.312-.348L3.008-8.456q.032.264.044.516t.012.468V0h-1.9V-11.568H2.792q.144,0,.248.008a.671.671,0,0,1,.188.04.445.445,0,0,1,.156.1.808.808,0,0,1,.136.192Zm15.147.44h1.456v1.144a.4.4,0,0,1-.1.276.387.387,0,0,1-.3.116H22.123V0H20.395V-2.824h-4.88a.541.541,0,0,1-.352-.124.535.535,0,0,1-.192-.308l-.2-1,5.48-7.32h1.872ZM20.395-8.144q0-.256.016-.552t.056-.616L16.875-4.36h3.52ZM34.909,0H33.245a.727.727,0,0,1-.46-.14.8.8,0,0,1-.26-.348l-.864-2.36H26.869l-.864,2.36a.757.757,0,0,1-.252.336.708.708,0,0,1-.46.152H23.621l4.544-11.568h2.2ZM27.421-4.368h3.688L29.7-8.216q-.1-.256-.212-.6t-.228-.756q-.112.408-.22.76t-.212.616Z" transform="translate(15 39)" fill="#fff"/>
      </g>
    </g>
  </g>
</svg>
