<svg id="mp3" xmlns="http://www.w3.org/2000/svg" width="64" height="64" viewBox="0 0 64 64">
  <g id="BDM-12" transform="translate(-785 -455)">
    <g id="Group-2-Copy-2" transform="translate(785 451)">
      <g id="Group-4" transform="translate(0 4)">
        <rect id="Rectangle" width="64" height="64" rx="3" fill="#5643b9"/>
        <path id="PNG" d="M6.976-4.8q.136.256.252.532t.228.556Q7.568-4,7.688-4.28t.256-.536l3.424-6.408a.888.888,0,0,1,.132-.192.408.408,0,0,1,.152-.1.671.671,0,0,1,.188-.04q.1-.008.248-.008h1.624V0h-1.9V-7.472q0-.208.012-.456t.036-.5l-3.5,6.56a.922.922,0,0,1-.312.348.807.807,0,0,1-.448.124h-.3a.807.807,0,0,1-.448-.124.922.922,0,0,1-.312-.348L3.008-8.456q.032.264.044.516t.012.468V0h-1.9V-11.568H2.792q.144,0,.248.008a.671.671,0,0,1,.188.04.445.445,0,0,1,.156.1.808.808,0,0,1,.136.192Zm11,.728V0H15.827V-11.568h3.768A6.6,6.6,0,0,1,21.6-11.3a3.865,3.865,0,0,1,1.4.76,2.976,2.976,0,0,1,.816,1.168,4.078,4.078,0,0,1,.264,1.488,4.111,4.111,0,0,1-.28,1.54,3.2,3.2,0,0,1-.84,1.2,3.909,3.909,0,0,1-1.4.784,6.234,6.234,0,0,1-1.968.28Zm0-1.68h1.616A3.242,3.242,0,0,0,20.627-5.9a1.917,1.917,0,0,0,.728-.424A1.738,1.738,0,0,0,21.787-7a2.572,2.572,0,0,0,.144-.884,2.333,2.333,0,0,0-.144-.84,1.661,1.661,0,0,0-.432-.64,1.922,1.922,0,0,0-.728-.4,3.414,3.414,0,0,0-1.032-.14H17.979ZM29.293-11.7a4.306,4.306,0,0,1,1.444.228,3.3,3.3,0,0,1,1.1.632,2.768,2.768,0,0,1,.7.948,2.84,2.84,0,0,1,.244,1.176,3.442,3.442,0,0,1-.124.972,2.262,2.262,0,0,1-.36.732,2.182,2.182,0,0,1-.576.528,3.494,3.494,0,0,1-.772.36,3.021,3.021,0,0,1,1.552,1,2.7,2.7,0,0,1,.512,1.688,3.479,3.479,0,0,1-.32,1.528,3.283,3.283,0,0,1-.864,1.116,3.765,3.765,0,0,1-1.26.684,4.888,4.888,0,0,1-1.516.232,5.173,5.173,0,0,1-1.52-.2,3.3,3.3,0,0,1-1.128-.592,3.575,3.575,0,0,1-.816-.96,6.479,6.479,0,0,1-.576-1.312l.872-.36a1.148,1.148,0,0,1,.456-.1.774.774,0,0,1,.372.088.6.6,0,0,1,.252.256q.144.28.316.552a2.239,2.239,0,0,0,.412.484,1.961,1.961,0,0,0,.564.344,2.042,2.042,0,0,0,.772.132,2.186,2.186,0,0,0,.88-.164,1.911,1.911,0,0,0,.628-.428,1.755,1.755,0,0,0,.376-.588,1.812,1.812,0,0,0,.124-.652,3.017,3.017,0,0,0-.088-.756,1.121,1.121,0,0,0-.368-.58,2,2,0,0,0-.8-.376,5.8,5.8,0,0,0-1.4-.136V-6.624a5,5,0,0,0,1.208-.136,2.057,2.057,0,0,0,.764-.356,1.206,1.206,0,0,0,.4-.548,2.119,2.119,0,0,0,.112-.7,1.625,1.625,0,0,0-.448-1.244,1.718,1.718,0,0,0-1.224-.42,1.808,1.808,0,0,0-1.168.372,1.945,1.945,0,0,0-.648.956.871.871,0,0,1-.264.436.692.692,0,0,1-.44.132,1.658,1.658,0,0,1-.272-.024l-1.04-.184a4.29,4.29,0,0,1,.464-1.46,3.5,3.5,0,0,1,.86-1.048,3.562,3.562,0,0,1,1.184-.632A4.722,4.722,0,0,1,29.293-11.7Z" transform="translate(15 39)" fill="#fff"/>
      </g>
    </g>
  </g>
</svg>
