<svg id="mp4" xmlns="http://www.w3.org/2000/svg" width="64" height="64" viewBox="0 0 64 64">
  <g id="BDM-12" transform="translate(-785 -455)">
    <g id="Group-2-Copy-2" transform="translate(785 451)">
      <g id="Group-4" transform="translate(0 4)">
        <rect id="Rectangle" width="64" height="64" rx="3" fill="#aa3582"/>
        <path id="PNG" d="M6.976-4.8q.136.256.252.532t.228.556Q7.568-4,7.688-4.28t.256-.536l3.424-6.408a.888.888,0,0,1,.132-.192.408.408,0,0,1,.152-.1.671.671,0,0,1,.188-.04q.1-.008.248-.008h1.624V0h-1.9V-7.472q0-.208.012-.456t.036-.5l-3.5,6.56a.922.922,0,0,1-.312.348.807.807,0,0,1-.448.124h-.3a.807.807,0,0,1-.448-.124.922.922,0,0,1-.312-.348L3.008-8.456q.032.264.044.516t.012.468V0h-1.9V-11.568H2.792q.144,0,.248.008a.671.671,0,0,1,.188.04.445.445,0,0,1,.156.1.808.808,0,0,1,.136.192Zm11,.728V0H15.827V-11.568h3.768A6.6,6.6,0,0,1,21.6-11.3a3.865,3.865,0,0,1,1.4.76,2.976,2.976,0,0,1,.816,1.168,4.078,4.078,0,0,1,.264,1.488,4.111,4.111,0,0,1-.28,1.54,3.2,3.2,0,0,1-.84,1.2,3.909,3.909,0,0,1-1.4.784,6.234,6.234,0,0,1-1.968.28Zm0-1.68h1.616A3.242,3.242,0,0,0,20.627-5.9a1.917,1.917,0,0,0,.728-.424A1.738,1.738,0,0,0,21.787-7a2.572,2.572,0,0,0,.144-.884,2.333,2.333,0,0,0-.144-.84,1.661,1.661,0,0,0-.432-.64,1.922,1.922,0,0,0-.728-.4,3.414,3.414,0,0,0-1.032-.14H17.979ZM31.829-4.36h1.456v1.144a.4.4,0,0,1-.1.276.387.387,0,0,1-.3.116H31.829V0H30.1V-2.824h-4.88a.541.541,0,0,1-.352-.124.535.535,0,0,1-.192-.308l-.2-1,5.48-7.32h1.872ZM30.1-8.144q0-.256.016-.552t.056-.616L26.581-4.36H30.1Z" transform="translate(15 37)" fill="#fff"/>
      </g>
    </g>
  </g>
</svg>
