<svg id="mpga" xmlns="http://www.w3.org/2000/svg" width="64" height="64" viewBox="0 0 64 64">
  <g id="BDM-12" transform="translate(-785 -455)">
    <g id="Group-2-Copy-2" transform="translate(785 451)">
      <g id="Group-4" transform="translate(0 4)">
        <path id="Rectangle" d="M3,0H61a3,3,0,0,1,3,3V61a3,3,0,0,1-3,3H3a3,3,0,0,1-3-3V3A3,3,0,0,1,3,0Z" fill="#e69f15"/>
        <path id="PNG" d="M6.976-4.8q.136.256.252.532t.228.556Q7.568-4,7.688-4.28t.256-.536l3.424-6.408a.888.888,0,0,1,.132-.192.408.408,0,0,1,.152-.1.671.671,0,0,1,.188-.04q.1-.008.248-.008h1.624V0h-1.9V-7.472q0-.208.012-.456t.036-.5l-3.5,6.56a.922.922,0,0,1-.312.348.807.807,0,0,1-.448.124h-.3a.807.807,0,0,1-.448-.124.922.922,0,0,1-.312-.348L3.008-8.456q.032.264.044.516t.012.468V0h-1.9V-11.568H2.792q.144,0,.248.008a.671.671,0,0,1,.188.04.445.445,0,0,1,.156.1.808.808,0,0,1,.136.192Zm11,.728V0H15.827V-11.568h3.768A6.6,6.6,0,0,1,21.6-11.3a3.865,3.865,0,0,1,1.4.76,2.976,2.976,0,0,1,.816,1.168,4.078,4.078,0,0,1,.264,1.488,4.111,4.111,0,0,1-.28,1.54,3.2,3.2,0,0,1-.84,1.2,3.909,3.909,0,0,1-1.4.784,6.234,6.234,0,0,1-1.968.28Zm0-1.68h1.616A3.242,3.242,0,0,0,20.627-5.9a1.917,1.917,0,0,0,.728-.424A1.738,1.738,0,0,0,21.787-7a2.572,2.572,0,0,0,.144-.884,2.333,2.333,0,0,0-.144-.84,1.661,1.661,0,0,0-.432-.64,1.922,1.922,0,0,0-.728-.4,3.414,3.414,0,0,0-1.032-.14H17.979ZM30.773-1.584a5.384,5.384,0,0,0,1.268-.132,5.341,5.341,0,0,0,1.028-.364v-2.1H31.621a.452.452,0,0,1-.328-.116.38.38,0,0,1-.12-.284V-5.8h3.848v4.68a6.356,6.356,0,0,1-.916.556,5.849,5.849,0,0,1-1.016.388,7.782,7.782,0,0,1-1.156.228,10.871,10.871,0,0,1-1.328.076,6.033,6.033,0,0,1-2.328-.44,5.531,5.531,0,0,1-1.84-1.224,5.573,5.573,0,0,1-1.212-1.872,6.33,6.33,0,0,1-.436-2.376,6.534,6.534,0,0,1,.424-2.392,5.4,5.4,0,0,1,1.2-1.872,5.375,5.375,0,0,1,1.892-1.216,6.846,6.846,0,0,1,2.5-.432,6.508,6.508,0,0,1,2.452.42,5.655,5.655,0,0,1,1.756,1.092l-.624.976a.555.555,0,0,1-.488.3.726.726,0,0,1-.392-.128q-.256-.152-.524-.3a3.545,3.545,0,0,0-.592-.264,4.826,4.826,0,0,0-.728-.184,5.36,5.36,0,0,0-.932-.072,3.993,3.993,0,0,0-1.548.288,3.275,3.275,0,0,0-1.18.824,3.714,3.714,0,0,0-.752,1.288,5.047,5.047,0,0,0-.264,1.68A5.25,5.25,0,0,0,27.269-4a3.734,3.734,0,0,0,.784,1.316,3.378,3.378,0,0,0,1.2.82A3.985,3.985,0,0,0,30.773-1.584ZM46.9,0H45.24a.727.727,0,0,1-.46-.14.8.8,0,0,1-.26-.348l-.864-2.36H38.864L38-.488a.757.757,0,0,1-.252.336.708.708,0,0,1-.46.152H35.616L40.16-11.568h2.2ZM39.416-4.368H43.1L41.7-8.216q-.1-.256-.212-.6t-.228-.756q-.112.408-.22.76t-.212.616Z" transform="translate(9 39)" fill="#fff"/>
      </g>
    </g>
  </g>
</svg>
