<svg id="Group_6024" data-name="Group 6024" xmlns="http://www.w3.org/2000/svg" width="17.858" height="22.079" viewBox="0 0 17.858 22.079">
  <path id="Path_2011" data-name="Path 2011" d="M346.485,294.749v14.443a2.17,2.17,0,0,1-2.17,2.17H330.8a2.171,2.171,0,0,1-2.171-2.17V291.453a2.171,2.171,0,0,1,2.171-2.171H340.9a1.921,1.921,0,0,1,1.337.541l3.661,3.545A1.921,1.921,0,0,1,346.485,294.749Z" transform="translate(-328.627 -289.282)" fill="#f5f5f5"/>
  <path id="Path_2011_-_Outline" data-name="Path 2011 - Outline" d="M330.8,290.148a1.307,1.307,0,0,0-1.305,1.305v17.738a1.306,1.306,0,0,0,1.305,1.3h13.517a1.306,1.306,0,0,0,1.3-1.3V294.749a1.061,1.061,0,0,0-.321-.758l-3.661-3.545a1.05,1.05,0,0,0-.734-.3H330.8m0-.866H340.9a1.921,1.921,0,0,1,1.337.541l3.661,3.545a1.921,1.921,0,0,1,.585,1.38v14.443a2.17,2.17,0,0,1-2.17,2.17H330.8a2.171,2.171,0,0,1-2.171-2.17V291.453A2.171,2.171,0,0,1,330.8,289.282Z" transform="translate(-328.627 -289.282)" fill="red"/>
  <path id="Path_2012" data-name="Path 2012" d="M-65.448-74.06h.825a.721.721,0,0,1,.564.217.878.878,0,0,1,.2.615.887.887,0,0,1-.2.619.724.724,0,0,1-.564.215h-.328v.886h-.5V-74.06m.5.477v.713h.275a.278.278,0,0,0,.223-.092.4.4,0,0,0,.079-.265.394.394,0,0,0-.079-.263.278.278,0,0,0-.223-.092h-.275m1.936.02v1.558h.178a.56.56,0,0,0,.465-.2.908.908,0,0,0,.161-.581.9.9,0,0,0-.16-.578.564.564,0,0,0-.466-.2h-.178m-.5-.5h.524a1.907,1.907,0,0,1,.653.084.842.842,0,0,1,.369.28,1.166,1.166,0,0,1,.2.4,1.826,1.826,0,0,1,.066.511,1.859,1.859,0,0,1-.066.516,1.167,1.167,0,0,1-.2.4.862.862,0,0,1-.372.282,1.947,1.947,0,0,1-.651.082h-.524V-74.06m2.195,0h1.341v.5h-.844v.475h.794v.5h-.794v1.082h-.5V-74.06" transform="translate(71.641 90.595)" fill="#2c2c2c"/>
  <g id="Group_6017" data-name="Group 6017" transform="translate(4.717 4.127)">
    <path id="Path_1984" data-name="Path 1984" d="M-.41,57.918c.256-.5.548-1.069.781-1.638l.092-.224a6.063,6.063,0,0,1-.324-2.692.415.415,0,0,1,.42-.252l.118,0H.7c.266,0,.391.334.405.466a2.118,2.118,0,0,1-.078.59,1.451,1.451,0,0,0-.089-.6c-.11-.242-.215-.386-.309-.409a.3.3,0,0,0-.11.224,3.223,3.223,0,0,0-.043.517,5.783,5.783,0,0,0,.238,1.5c.03-.086.056-.168.077-.246.032-.122.238-.93.238-.93S.978,55.3.905,55.628c-.016.069-.033.137-.05.206a4.724,4.724,0,0,0,1.18,1.843,3.687,3.687,0,0,0,.682.468,9.311,9.311,0,0,1,1.385-.1,1.734,1.734,0,0,1,1.066.238.406.406,0,0,1,.117.266.8.8,0,0,1-.022.155c.006-.028.006-.166-.416-.3a4.9,4.9,0,0,0-1.7-.023,3.435,3.435,0,0,0,1.967.506.56.56,0,0,0,.144-.14,1.5,1.5,0,0,1-.081.266.42.42,0,0,1-.207.142A4.4,4.4,0,0,1,2.5,58.459a20.157,20.157,0,0,0-3.173.754c-.922,1.615-1.615,2.357-2.178,2.075l-.207-.1a.24.24,0,0,1-.078-.261c.066-.322.469-.806,1.279-1.289.087-.053.475-.258.475-.258s-.287.278-.355.333a3,3,0,0,0-1.112,1.454l0,.023c.549-.078,1.373-1.2,2.431-3.267m.335.172c-.177.333-.35.642-.509.925a13.523,13.523,0,0,1,2.737-.775c-.122-.084-.239-.173-.351-.267a4.694,4.694,0,0,1-1.153-1.5A12.851,12.851,0,0,1-.075,58.09" transform="translate(3.139 -53.112)" fill="#f91d0a"/>
  </g>
</svg>
