<svg id="powerpoint-2" xmlns="http://www.w3.org/2000/svg" width="20.345" height="20.345" viewBox="0 0 20.345 20.345">
  <path id="Path_2001" data-name="Path 2001" d="M12.9,2A8.927,8.927,0,0,0,4,10.9l11.277,2.376Z" transform="translate(-1.457 -0.728)" fill="#ed6c47"/>
  <path id="Path_2002" data-name="Path 2002" d="M18,2a8.927,8.927,0,0,1,8.9,8.9l-4.45,3.025L18,10.9Z" transform="translate(-6.556 -0.728)" fill="#ff8f6b"/>
  <path id="Path_2003" data-name="Path 2003" d="M12.9,24.9A8.927,8.927,0,0,0,21.8,16H4a8.927,8.927,0,0,0,8.9,8.9Z" transform="translate(-1.457 -5.828)" fill="#d35230"/>
  <path id="Path_2004" data-name="Path 2004" d="M12.053,7H6.1a8.846,8.846,0,0,0,.591,12.08h5.36a.85.85,0,0,0,.848-.847V7.847A.85.85,0,0,0,12.053,7Z" transform="translate(-1.457 -2.55)" opacity="0.1"/>
  <path id="Path_2005" data-name="Path 2005" d="M11.417,8h-5.8A8.841,8.841,0,0,0,7.424,20.08h3.994a.85.85,0,0,0,.847-.847V8.847A.85.85,0,0,0,11.417,8Z" transform="translate(-1.457 -2.914)" opacity="0.2"/>
  <path id="Path_2006" data-name="Path 2006" d="M11.417,8h-5.8A8.831,8.831,0,0,0,6.1,18.808h5.316a.85.85,0,0,0,.847-.847V8.847A.85.85,0,0,0,11.417,8Z" transform="translate(-1.457 -2.914)" opacity="0.2"/>
  <path id="Path_2007" data-name="Path 2007" d="M10.781,8H5.615A8.831,8.831,0,0,0,6.1,18.808h4.68a.85.85,0,0,0,.847-.847V8.847A.85.85,0,0,0,10.781,8Z" transform="translate(-1.457 -2.914)" opacity="0.2"/>
  <path id="Path_2008" data-name="Path 2008" d="M.847,8H9.325a.847.847,0,0,1,.847.847v8.477a.847.847,0,0,1-.847.847H.847A.847.847,0,0,1,0,17.325V8.847A.847.847,0,0,1,.847,8Z" transform="translate(0 -2.914)" fill="#c43e1c"/>
  <path id="Path_2009" data-name="Path 2009" d="M6.541,11a2.65,2.65,0,0,1,1.752.512A1.83,1.83,0,0,1,8.9,12.99,1.733,1.733,0,0,1,8.6,14a2.012,2.012,0,0,1-.854.754,2.905,2.905,0,0,1-1.284.27H5.247v2.331H4V11Zm-1.3,2.977H6.319a1.4,1.4,0,0,0,.949-.282.7.7,0,0,0,.32-.652q0-1.055-1.229-1.055H5.246Z" transform="translate(-1.457 -4.003)" fill="#f9f7f7"/>
  <path id="Path_2010" data-name="Path 2010" d="M0,0H20.345V20.345H0Z" fill="none"/>
</svg>
